<svg width="48" height="48" viewBox="0 0 48 48" fill="none" xmlns="http://www.w3.org/2000/svg">
<path opacity="0.3" d="M8 32H40V15.8C39.36 15.92 38.68 16 38 16C33.16 16 29.12 12.56 28.2 8H8V32Z" fill="#585CA2"/>
<path d="M40 15.8C41.48 15.5 42.84 14.84 44 13.96V32C44 34.2 42.2 36 40 36H12L4 44V8C4 5.8 5.8 4 8 4H28.2C28.08 4.64 28 5.32 28 6C28 6.68 28.08 7.36 28.2 8H8V32H40V15.8ZM32 6C32 9.32 34.68 12 38 12C41.32 12 44 9.32 44 6C44 2.68 41.32 0 38 0C34.68 0 32 2.68 32 6Z" fill="#585CA2"/>
</svg>
