<svg width="48" height="48" viewBox="0 0 48 48" fill="none" xmlns="http://www.w3.org/2000/svg">
<path opacity="0.3" d="M38 38H10V14H38V38ZM24 21C27.68 21 30.96 22.92 32.68 26C30.96 29.08 27.68 31 24 31C20.32 31 17.04 29.08 15.32 26C17.04 22.92 20.32 21 24 21ZM24 18C18.54 18 13.88 21.32 12 26C13.88 30.68 18.54 34 24 34C29.46 34 34.12 30.68 36 26C34.12 21.32 29.46 18 24 18ZM24 29C22.34 29 21 27.66 21 26C21 24.34 22.34 23 24 23C25.66 23 27 24.34 27 26C27 27.66 25.66 29 24 29Z" fill="#585CA2"/>
<path d="M38 6H10C7.78 6 6 7.8 6 10V38C6 40.2 7.78 42 10 42H38C40.2 42 42 40.2 42 38V10C42 7.8 40.22 6 38 6ZM38 38H10V14H38V38ZM24 21C27.68 21 30.96 22.92 32.68 26C30.96 29.08 27.68 31 24 31C20.32 31 17.04 29.08 15.32 26C17.04 22.92 20.32 21 24 21ZM24 18C18.54 18 13.88 21.32 12 26C13.88 30.68 18.54 34 24 34C29.46 34 34.12 30.68 36 26C34.12 21.32 29.46 18 24 18ZM24 29C22.34 29 21 27.66 21 26C21 24.34 22.34 23 24 23C25.66 23 27 24.34 27 26C27 27.66 25.66 29 24 29Z" fill="#585CA2"/>
</svg>
