<svg width="48" height="48" viewBox="0 0 48 48" fill="none" xmlns="http://www.w3.org/2000/svg">
<path d="M36.3802 24.878L29.9002 21.638C32.4802 19.638 34.1402 16.518 34.1402 12.998C34.1402 6.93805 29.2002 1.99805 23.1402 1.99805C17.0802 1.99805 12.1402 6.93805 12.1402 12.998C12.1402 17.258 14.5802 20.958 18.1402 22.778V29.298C13.9802 28.418 14.1202 28.418 13.6202 28.418C12.5602 28.418 11.5602 28.838 10.8002 29.598L8.00024 32.438L18.1802 42.618C19.0402 43.498 20.2402 43.998 21.4802 43.998H34.0802C36.0402 43.998 37.7002 42.598 38.0202 40.658L39.6202 31.238C40.0602 28.638 38.7602 26.078 36.3802 24.878ZM16.1402 12.998C16.1402 9.13805 19.2802 5.99805 23.1402 5.99805C27.0002 5.99805 30.1402 9.13805 30.1402 12.998C30.1402 14.898 29.3802 16.618 28.1402 17.878V12.998C28.1402 10.238 25.9002 7.99805 23.1402 7.99805C20.3802 7.99805 18.1402 10.238 18.1402 12.998V17.878C16.9002 16.618 16.1402 14.898 16.1402 12.998ZM35.6802 30.578L34.0802 39.998H21.4802C21.3002 39.998 21.1402 39.918 21.0002 39.798L13.6402 32.438L22.1402 34.218V12.998C22.1402 12.438 22.5802 11.998 23.1402 11.998C23.7002 11.998 24.1402 12.438 24.1402 12.998V24.998H27.6602L34.5802 28.458C35.3802 28.858 35.8202 29.718 35.6802 30.578Z" fill="#585CA2"/>
<path opacity="0.3" d="M34.6001 28.458L27.6801 24.998H24.1401V12.998C24.1401 12.438 23.7001 11.998 23.1401 11.998C22.5801 11.998 22.1401 12.438 22.1401 12.998V34.218L13.6401 32.438L21.0001 39.798C21.1201 39.918 21.3001 39.998 21.4801 39.998H34.0801L35.6801 30.578C35.8201 29.718 35.3801 28.858 34.6001 28.458Z" fill="#585CA2"/>
</svg>
